<svg xmlns="http://www.w3.org/2000/svg" xmlns:xlink="http://www.w3.org/1999/xlink" viewBox="0 0 110.36 30.62"><defs><linearGradient id="a" y1="15.31" x2="30.62" y2="15.31" gradientUnits="userSpaceOnUse"><stop offset="0" stop-color="#e59f25"/><stop offset="0.15" stop-color="#d49328"/><stop offset="0.45" stop-color="#a7722e"/><stop offset="0.85" stop-color="#634238"/></linearGradient><linearGradient id="b" x1="43.92" y1="29.66" x2="70.59" y2="-31.45" gradientUnits="userSpaceOnUse"><stop offset="0" stop-color="#b1892f"/><stop offset="0.2" stop-color="#935721"/><stop offset="0.21" stop-color="#925621"/><stop offset="0.27" stop-color="#794118"/><stop offset="0.33" stop-color="#683311"/><stop offset="0.39" stop-color="#5d2a0d"/><stop offset="0.47" stop-color="#5a270c"/><stop offset="0.52" stop-color="#632e0f"/><stop offset="0.59" stop-color="#7a4218"/><stop offset="0.65" stop-color="#935721"/><stop offset="0.69" stop-color="#a96f2a"/><stop offset="0.76" stop-color="#d19a39"/><stop offset="0.82" stop-color="#e9b542"/><stop offset="0.86" stop-color="#f2bf46"/><stop offset="0.88" stop-color="#eeba44"/><stop offset="0.91" stop-color="#e1ab3f"/><stop offset="0.94" stop-color="#cd9237"/><stop offset="0.97" stop-color="#b1702c"/><stop offset="1" stop-color="#964f21"/></linearGradient><linearGradient id="c" x1="59.04" y1="37.13" x2="85.8" y2="-24.18" xlink:href="#b"/><linearGradient id="d" x1="72.79" y1="44.07" x2="99.7" y2="-17.59" xlink:href="#b"/><linearGradient id="e" x1="86.99" y1="51.1" x2="113.91" y2="-10.55" xlink:href="#b"/></defs><g style="isolation:isolate"><circle cx="15.31" cy="15.31" r="15.31" fill="url(#a)"/><path d="M24.35,16.22a6.28,6.28,0,0,1-4.53,5.68,9.63,9.63,0,0,1-2.39.22h-.91v2.44H14.13V22.11H6s0-.07,0-.1l5.65-4.86.74-.63.11-.1H11.15V16.1h1.72l.24-.21a3.47,3.47,0,0,0,.52-.44l.37-.32H11.15V14.8h3.23l.21-.17c.66-.55,1.3-1.11,1.95-1.67a1.7,1.7,0,0,1,.23-.17l0-.09-.34,0H12.61a3.24,3.24,0,0,0-3.39,3c0,.23-.1.29-.32.29-.76,0-1.52,0-2.28,0-.35,0-.35-.17-.33-.41a6.15,6.15,0,0,1,3.2-5,6.23,6.23,0,0,1,3.28-.77c.33,0,.66,0,1,0a.38.38,0,0,0,.19,0h.16V6.07h2.4V9.75h8.08s0,.07,0,.11l-5.19,4.46-.56.48h.58v.33h-1l-1.13,1h2.09v.33H17l-.8.69h0l-2.25,1.92a1.11,1.11,0,0,0-.07.13l.41,0h3.79a3.3,3.3,0,0,0,3.36-3c0-.19.08-.28.28-.28h2.36C24.28,15.91,24.35,16,24.35,16.22Z" fill="#fff"/><path d="M57.92,18.12v2.37H41.45l3.07-2.2,6.84-4.91h-9.3V11H58.52l-3.07,2.21-6.84,4.91Z" fill="url(#b)"/><path d="M61.93,14.65a2.39,2.39,0,0,1,.66-.09H75.8v2.38H62.56l-.09,0a1.08,1.08,0,0,0-.27.1.5.5,0,0,0-.19.19,1.19,1.19,0,0,0-.08.48v.39H75.8v2.37H59.94V14.17a3.2,3.2,0,0,1,.93-2.45A2.41,2.41,0,0,1,62.59,11H75.8v2.38H62.56l-.09,0a1.08,1.08,0,0,0-.27.1.57.57,0,0,0-.19.19,1.19,1.19,0,0,0-.08.48Z" fill="url(#c)"/><path d="M77.22,11h11.9a3.62,3.62,0,0,1,2.58,1.08,4.8,4.8,0,0,1,1.38,3.67h-2a2.29,2.29,0,0,0-.82-2,1.68,1.68,0,0,0-.66-.31,2.47,2.47,0,0,0-.29-.06H79.2v2.37h9.92a3.65,3.65,0,0,1,2.58,1.07,4.8,4.8,0,0,1,1.38,3.67h-2a2.29,2.29,0,0,0-.82-2,2,2,0,0,0-.66-.31l-.29-.05-.21,0H79.2v2.37h-2Z" fill="url(#d)"/><path d="M96.48,19.31v1.18h-2V11h11.89A3.62,3.62,0,0,1,109,12.08a4.81,4.81,0,0,1,1.39,3.67v4.74h-2V19.31Zm0-2.37h11.9V15.75a2.29,2.29,0,0,0-.83-2,1.7,1.7,0,0,0-.65-.31l-.29-.06H96.48Z" fill="url(#e)"/><g opacity="0.34" style="mix-blend-mode:lighten"><g opacity="0.42"><path d="M57.92,18.12v2.37H41.45l3.07-2.2,6.84-4.91h-9.3V11H58.52l-3.07,2.21-6.84,4.91Z" fill="#fff"/><path d="M61.93,14.65a2.39,2.39,0,0,1,.66-.09H75.8v2.38H62.56l-.09,0a1.08,1.08,0,0,0-.27.1.5.5,0,0,0-.19.19,1.19,1.19,0,0,0-.08.48v.39H75.8v2.37H59.94V14.17a3.2,3.2,0,0,1,.93-2.45A2.41,2.41,0,0,1,62.59,11H75.8v2.38H62.56l-.09,0a1.08,1.08,0,0,0-.27.1.57.57,0,0,0-.19.19,1.19,1.19,0,0,0-.08.48Z" fill="#fff"/><path d="M77.22,11h11.9a3.62,3.62,0,0,1,2.58,1.08,4.8,4.8,0,0,1,1.38,3.67h-2a2.29,2.29,0,0,0-.82-2,1.68,1.68,0,0,0-.66-.31,2.47,2.47,0,0,0-.29-.06H79.2v2.37h9.92a3.65,3.65,0,0,1,2.58,1.07,4.8,4.8,0,0,1,1.38,3.67h-2a2.29,2.29,0,0,0-.82-2,2,2,0,0,0-.66-.31l-.29-.05-.21,0H79.2v2.37h-2Z" fill="#fff"/><path d="M96.48,19.31v1.18h-2V11h11.89A3.62,3.62,0,0,1,109,12.08a4.81,4.81,0,0,1,1.39,3.67v4.74h-2V19.31Zm0-2.37h11.9V15.75a2.29,2.29,0,0,0-.83-2,1.7,1.7,0,0,0-.65-.31l-.29-.06H96.48Z" fill="#fff"/></g></g></g></svg>