<svg xmlns="http://www.w3.org/2000/svg" viewBox="0 0 110.36 30.62"><path d="M15.31,0A15.31,15.31,0,1,0,30.62,15.31,15.31,15.31,0,0,0,15.31,0Zm4.15,14.8v.33h-1l-1.12,1h2.08v.33H17l-.8.69c-.76.64-1.5,1.28-2.25,1.93,0,0,0,.06-.08.13l.42,0c1.26,0,2.52,0,3.79,0a3.27,3.27,0,0,0,3.35-3c0-.2.08-.29.29-.29h2.35c.23,0,.3.09.29.31a6.26,6.26,0,0,1-4.53,5.67,8.77,8.77,0,0,1-2.39.22h-.9v2.44H14.14V22.11h-.81c-2.25,0-4.5,0-6.75,0H6A.41.41,0,0,0,6,22l5.65-4.86.74-.64.11-.09H11.16V16.1h1.72l.24-.21a4.11,4.11,0,0,0,.51-.44l.37-.32H11.16V14.8h3.23l.2-.18c.66-.54,1.3-1.11,2-1.67l.23-.17a.36.36,0,0,1,0-.09l-.34,0H12.61a3.22,3.22,0,0,0-3.38,3c0,.22-.11.29-.32.28-.76,0-1.52,0-2.28,0-.35,0-.35-.17-.33-.41a6.17,6.17,0,0,1,3.19-5,6.38,6.38,0,0,1,3.28-.77c.34,0,.67,0,1,0h.35V6.06h2.39V9.74h8.08a.56.56,0,0,1,0,.12l-5.19,4.46-.56.48Z" fill="#fff"/><path d="M57.92,18.11v2.38H41.46l3.06-2.21,6.85-4.91H42.06V11H58.53l-3.07,2.2-6.84,4.91Z" fill="#fff"/><path d="M61.93,14.65a2.39,2.39,0,0,1,.66-.09H75.81v2.37H62.56l-.09,0a.89.89,0,0,0-.26.11.44.44,0,0,0-.19.19,1,1,0,0,0-.09.48v.38H75.81v2.38H60V14.17a3.23,3.23,0,0,1,.92-2.46A2.46,2.46,0,0,1,62.59,11H75.81v2.37H62.47a.89.89,0,0,0-.26.11.44.44,0,0,0-.19.19,1,1,0,0,0-.09.48Z" fill="#fff"/><path d="M77.22,11h11.9a3.65,3.65,0,0,1,2.58,1.07,4.83,4.83,0,0,1,1.38,3.68h-2a2.31,2.31,0,0,0-.82-2,1.83,1.83,0,0,0-.66-.31l-.28,0-.22,0H79.21v2.38h9.91a3.64,3.64,0,0,1,2.58,1.06,4.83,4.83,0,0,1,1.38,3.68h-2a2.31,2.31,0,0,0-.82-2,1.81,1.81,0,0,0-.66-.3,1.4,1.4,0,0,0-.28-.06l-.22,0H79.21v2.38h-2Z" fill="#fff"/><path d="M96.49,19.3v1.19h-2V11h11.9A3.65,3.65,0,0,1,109,12.07a4.83,4.83,0,0,1,1.38,3.68v4.74h-2V19.3Zm0-2.37h11.89V15.75a2.31,2.31,0,0,0-.82-2,1.83,1.83,0,0,0-.66-.31l-.29,0-.21,0H96.49Z" fill="#fff"/></svg>