<svg xmlns="http://www.w3.org/2000/svg" xmlns:xlink="http://www.w3.org/1999/xlink" viewBox="0 0 292.72 288"><defs><linearGradient id="a" y1="144" x2="292.72" y2="144" gradientUnits="userSpaceOnUse"><stop offset="0" stop-color="#e6a025"/><stop offset="0.15" stop-color="#d59428"/><stop offset="0.45" stop-color="#a8742e"/><stop offset="0.85" stop-color="#634338"/></linearGradient></defs><path d="M190.62,195.36H121.45l41.8-35.9h49.09v-9.39H174.19l13.4-11.51h24.75v-9.39H198.53l94.19-80.88H162.59V0H130.14V48.29h-28a96.13,96.13,0,0,0-96,96h45a51.1,51.1,0,0,1,51-51h69.18l-41.81,35.9H80.38v9.39h38.15l-13.4,11.51H80.38v9.39H94.2L0,240.34H130.14V288h32.45V240.34h28a96.12,96.12,0,0,0,96-96h-45A51.1,51.1,0,0,1,190.62,195.36Z" fill="url(#a)"/></svg>